<svg width="856" height="570" viewBox="0 0 856 570" fill="none" xmlns="http://www.w3.org/2000/svg">
<path d="M722.153 324.385C747.756 345.814 768.718 366.218 784.517 384.968C800.323 403.725 810.932 420.792 815.876 435.545C820.816 450.289 819.958 462.288 813.727 471.371C807.479 480.478 795.709 486.833 778.428 489.994C743.858 496.319 689.346 489.476 621.888 470.244C554.46 451.021 477.3 420.335 400.399 382.154C323.499 343.974 250.417 300.065 190.613 256.116C130.794 212.156 87.0705 170.221 65.0361 135.751C54.0158 118.511 48.7299 103.621 49.0205 91.4602C49.3094 79.3659 55.1148 69.8853 66.5302 63.3734C77.9948 56.8336 94.864 53.4392 116.496 53.2767C138.113 53.1144 164.411 56.1795 194.674 62.49" stroke="white" stroke-width="1.5"/>
</svg>
