<svg width="20" height="18" viewBox="0 0 20 18" fill="none" xmlns="http://www.w3.org/2000/svg">
<path d="M15.9623 18C15.8074 18 15.6535 17.9535 15.5216 17.8627L10.536 14.4305L7.86199 16.3832C7.65228 16.5362 7.38197 16.5748 7.13845 16.4864C6.89525 16.3979 6.71054 16.1934 6.64461 15.9399L5.30196 10.7758L0.504532 8.91411C0.202514 8.79686 0.00221589 8.50362 1.8262e-05 8.17543C-0.00217937 7.84725 0.194142 7.55125 0.494695 7.42985L18.7363 0.0632605C18.8191 0.0275746 18.9067 0.00697016 18.995 0.00144734C19.0266 -0.000464406 19.0583 -0.000464347 19.0898 0.00134119C19.2727 0.0123868 19.4524 0.088007 19.5926 0.227564C19.6072 0.242009 19.621 0.256772 19.6341 0.272172C19.7502 0.406844 19.8141 0.571041 19.8261 0.738319C19.829 0.780377 19.8288 0.822967 19.8252 0.865556C19.8227 0.895932 19.8184 0.926201 19.8123 0.956258L16.7332 17.3526C16.6837 17.616 16.5071 17.8364 16.263 17.9391C16.1662 17.9799 16.064 18 15.9623 18ZM10.9737 12.8067L15.4147 15.8639L17.8106 3.1058L9.15745 11.5564L10.9528 12.7924C10.96 12.797 10.9669 12.8019 10.9737 12.8067ZM7.2768 12.1269L7.87141 14.4136L9.15253 13.478L7.475 12.3231C7.39704 12.2695 7.33027 12.2028 7.2768 12.1269ZM2.94443 8.15515L6.23857 9.43336C6.47456 9.52491 6.65267 9.72628 6.71713 9.97417L7.13489 11.581C7.15404 11.3957 7.23682 11.2213 7.37129 11.0899L15.6165 3.03783L2.94443 8.15515Z" fill="white"/>
</svg>
