<svg width="15" height="22" viewBox="0 0 15 22" fill="none" xmlns="http://www.w3.org/2000/svg">
<path fill-rule="evenodd" clip-rule="evenodd" d="M7.38172 21C8.76669 18.4255 13.7906 10.187 13.7906 7.36856C13.7906 3.84553 10.912 1 7.38172 1C3.85141 1 1 3.84553 1 7.36856C1 10.187 6.02391 18.4255 7.38172 21ZM7.38172 20.0786C9.17404 16.8808 13.3289 9.86179 13.3289 7.36856C13.3289 4.08943 10.6676 1.4336 7.38172 1.4336C4.09581 1.4336 1.4345 4.08943 1.4345 7.36856C1.4345 9.86179 5.61656 16.8808 7.38172 20.0786ZM7.38172 4.60434C8.92963 4.60434 10.1788 5.85095 10.1788 7.36856C10.1788 8.91328 8.92963 10.1599 7.38172 10.1599C5.86097 10.1599 4.61178 8.91328 4.61178 7.36856C4.61178 5.85095 5.86097 4.60434 7.38172 4.60434ZM7.38172 5.03794C8.68522 5.03794 9.74432 6.06775 9.74432 7.36856C9.74432 8.66938 8.68522 9.72629 7.38172 9.72629C6.10538 9.72629 5.04628 8.66938 5.04628 7.36856C5.04628 6.06775 6.10538 5.03794 7.38172 5.03794Z" fill="#CAA77E" stroke="white" stroke-width="0.5"/>
</svg>
