<svg width="18" height="18" viewBox="0 0 18 18" fill="none" xmlns="http://www.w3.org/2000/svg">
<path d="M8.90012 3.92773C6.25614 3.92773 4.10449 5.98583 4.10449 8.51485C4.10449 11.0439 6.25614 13.1009 8.90012 13.1009C11.5441 13.1009 13.6946 11.0439 13.6946 8.51485C13.6946 5.98583 11.5441 3.92773 8.90012 3.92773ZM8.90012 11.7939C7.00945 11.7939 5.47207 10.3222 5.47207 8.51485C5.47207 6.70639 7.00945 5.23585 8.90012 5.23585C10.7896 5.23585 12.3282 6.70639 12.3282 8.51485C12.327 10.3222 10.7896 11.7939 8.90012 11.7939Z" fill="white"/>
<path d="M14.2184 4.37114C14.5678 4.37114 14.8509 4.10027 14.8509 3.76614C14.8509 3.432 14.5678 3.16113 14.2184 3.16113C13.8691 3.16113 13.5859 3.432 13.5859 3.76614C13.5859 4.10027 13.8691 4.37114 14.2184 4.37114Z" fill="white"/>
<path d="M13.6757 0H4.12437C1.84622 0 0 1.76704 0 3.94614V13.0822C0 15.2613 1.84736 17.0284 4.12437 17.0284H13.6757C15.9539 17.0284 17.8012 15.2613 17.8012 13.0822V3.94723C17.8012 1.76704 15.9539 0 13.6757 0ZM16.4337 13.0822C16.4337 14.5364 15.196 15.7203 13.6757 15.7203H4.12437C2.60409 15.7203 1.36757 14.5364 1.36757 13.0822V3.94723C1.36757 2.49305 2.60409 1.3092 4.12437 1.3092H13.6757C15.196 1.3092 16.4337 2.49196 16.4337 3.94723V13.0822Z" fill="white"/>
</svg>
