<svg width="11" height="21" viewBox="0 0 11 21" fill="none" xmlns="http://www.w3.org/2000/svg">
<path d="M9.28125 0H1.71875C1.26291 0 0.825738 0.184374 0.50341 0.512563C0.181082 0.840752 0 1.28587 0 1.75V19.25C0 19.7141 0.181082 20.1592 0.50341 20.4874C0.825738 20.8156 1.26291 21 1.71875 21H9.28125C9.50696 21 9.73046 20.9547 9.93899 20.8668C10.1475 20.7788 10.337 20.6499 10.4966 20.4874C10.6562 20.3249 10.7828 20.132 10.8692 19.9197C10.9555 19.7074 11 19.4798 11 19.25V1.75C11 1.52019 10.9555 1.29262 10.8692 1.0803C10.7828 0.867984 10.6562 0.675066 10.4966 0.512563C10.337 0.350061 10.1475 0.221157 9.93899 0.133211C9.73046 0.0452651 9.50696 0 9.28125 0ZM10.3125 19.25C10.3125 19.5285 10.2038 19.7955 10.0105 19.9925C9.81706 20.1894 9.55475 20.3 9.28125 20.3H1.71875C1.44525 20.3 1.18294 20.1894 0.989546 19.9925C0.796149 19.7955 0.6875 19.5285 0.6875 19.25V1.75C0.6875 1.47152 0.796149 1.20445 0.989546 1.00754C1.18294 0.810625 1.44525 0.7 1.71875 0.7H2.75V1.05C2.75 1.14283 2.78622 1.23185 2.85068 1.29749C2.91515 1.36312 3.00258 1.4 3.09375 1.4H7.90625C7.99742 1.4 8.08485 1.36312 8.14932 1.29749C8.21378 1.23185 8.25 1.14283 8.25 1.05V0.7H9.28125C9.55475 0.7 9.81706 0.810625 10.0105 1.00754C10.2038 1.20445 10.3125 1.47152 10.3125 1.75V19.25Z" fill="white"/>
</svg>
