<svg width="96" height="36" viewBox="0 0 96 36" fill="none" xmlns="http://www.w3.org/2000/svg">
<path d="M0.828125 3.625H3.125V13.0938H6.49219V3.625H8.79688V13.1016H10.1953L10.0391 17.7422H7.89844V15H0.828125V3.625ZM17.1719 3.625H19.4688V15H17.1719V7.46875L13.8203 15H11.5156V3.625H13.8203V11.1641L17.1719 3.625ZM27.3125 4.64062C28.526 4.64062 29.5026 5.08333 30.2422 5.96875C30.987 6.84896 31.3594 7.98438 31.3594 9.375C31.3594 10.7292 30.9896 11.8411 30.25 12.7109C29.5104 13.5807 28.5312 14.0156 27.3125 14.0156V15.4688H25.1094V14.0156C24.2812 14.0156 23.5625 13.8229 22.9531 13.4375C22.349 13.0469 21.8776 12.5 21.5391 11.7969C21.2005 11.0885 21.0312 10.2865 21.0312 9.39062C21.0312 8 21.4036 6.86198 22.1484 5.97656C22.8932 5.08594 23.8802 4.64062 25.1094 4.64062V3.15625H27.3125V4.64062ZM24.9922 6.60156C24.4349 6.60156 23.9948 6.84896 23.6719 7.34375C23.3542 7.83854 23.1953 8.52083 23.1953 9.39062C23.1953 10.2031 23.3542 10.849 23.6719 11.3281C23.9948 11.8073 24.4401 12.0469 25.0078 12.0469H25.1094V6.60156H24.9922ZM27.3125 6.60156V12.0469H27.4297C27.9714 12.0469 28.401 11.8073 28.7188 11.3281C29.0365 10.8438 29.1953 10.1927 29.1953 9.375C29.1953 8.51562 29.0365 7.83854 28.7188 7.34375C28.4062 6.84896 27.9688 6.60156 27.4062 6.60156H27.3125ZM35.1797 11V15H32.8828V3.625H36.7578C37.8828 3.625 38.7786 3.97396 39.4453 4.67188C40.1172 5.36979 40.4531 6.27604 40.4531 7.39062C40.4531 8.50521 40.1224 9.38542 39.4609 10.0312C38.7995 10.6771 37.8828 11 36.7109 11H35.1797ZM35.1797 9.08594H36.7578C37.1953 9.08594 37.5339 8.94271 37.7734 8.65625C38.013 8.36979 38.1328 7.95312 38.1328 7.40625C38.1328 6.83854 38.0104 6.38802 37.7656 6.05469C37.5208 5.71615 37.1927 5.54427 36.7812 5.53906H35.1797V9.08594ZM50 10.3359C50 11.862 49.638 13.0469 48.9141 13.8906C48.1953 14.7344 47.1953 15.1562 45.9141 15.1562C44.638 15.1562 43.6354 14.7396 42.9062 13.9062C42.1771 13.0677 41.8073 11.8958 41.7969 10.3906V8.44531C41.7969 6.88281 42.1589 5.66406 42.8828 4.78906C43.6068 3.90885 44.612 3.46875 45.8984 3.46875C47.1641 3.46875 48.1615 3.90104 48.8906 4.76562C49.6198 5.625 49.9896 6.83333 50 8.39062V10.3359ZM47.6953 8.42969C47.6953 7.40365 47.5495 6.64062 47.2578 6.14062C46.9661 5.64062 46.513 5.39062 45.8984 5.39062C45.2891 5.39062 44.8385 5.63281 44.5469 6.11719C44.2552 6.59635 44.1042 7.32812 44.0938 8.3125V10.3359C44.0938 11.3307 44.2422 12.0651 44.5391 12.5391C44.8359 13.0078 45.2943 13.2422 45.9141 13.2422C46.513 13.2422 46.9583 13.013 47.25 12.5547C47.5417 12.0911 47.6901 11.375 47.6953 10.4062V8.42969ZM51.6484 15V3.625H55.1641C56.3516 3.625 57.2526 3.89062 57.8672 4.42188C58.487 4.94792 58.7969 5.72135 58.7969 6.74219C58.7969 7.32031 58.6693 7.81771 58.4141 8.23438C58.1589 8.65104 57.8099 8.95573 57.3672 9.14844C57.8776 9.29427 58.2708 9.58854 58.5469 10.0312C58.8229 10.4688 58.9609 11.0104 58.9609 11.6562C58.9609 12.7604 58.6562 13.5938 58.0469 14.1562C57.4427 14.7188 56.5651 15 55.4141 15H51.6484ZM53.9453 10.0547V13.0938H55.4141C55.8255 13.0938 56.138 12.9661 56.3516 12.7109C56.5651 12.4557 56.6719 12.0938 56.6719 11.625C56.6719 10.6042 56.3021 10.0807 55.5625 10.0547H53.9453ZM53.9453 8.38281H55.1406C56.0417 8.38281 56.4922 7.91667 56.4922 6.98438C56.4922 6.46875 56.388 6.09896 56.1797 5.875C55.9714 5.65104 55.6328 5.53906 55.1641 5.53906H53.9453V8.38281ZM68.6406 10.3359C68.6406 11.862 68.2786 13.0469 67.5547 13.8906C66.8359 14.7344 65.8359 15.1562 64.5547 15.1562C63.2786 15.1562 62.276 14.7396 61.5469 13.9062C60.8177 13.0677 60.4479 11.8958 60.4375 10.3906V8.44531C60.4375 6.88281 60.7995 5.66406 61.5234 4.78906C62.2474 3.90885 63.2526 3.46875 64.5391 3.46875C65.8047 3.46875 66.8021 3.90104 67.5312 4.76562C68.2604 5.625 68.6302 6.83333 68.6406 8.39062V10.3359ZM66.3359 8.42969C66.3359 7.40365 66.1901 6.64062 65.8984 6.14062C65.6068 5.64062 65.1536 5.39062 64.5391 5.39062C63.9297 5.39062 63.4792 5.63281 63.1875 6.11719C62.8958 6.59635 62.7448 7.32812 62.7344 8.3125V10.3359C62.7344 11.3307 62.8828 12.0651 63.1797 12.5391C63.4766 13.0078 63.9349 13.2422 64.5547 13.2422C65.1536 13.2422 65.599 13.013 65.8906 12.5547C66.1823 12.0911 66.3307 11.375 66.3359 10.4062V8.42969ZM75.8594 3.625H78.1562V15H75.8594V7.46875L72.5078 15H70.2031V3.625H72.5078V11.1641L75.8594 3.625ZM76.9062 0.625C76.9062 1.31771 76.6562 1.8776 76.1562 2.30469C75.6615 2.73177 75.0078 2.94531 74.1953 2.94531C73.3776 2.94531 72.7188 2.73177 72.2188 2.30469C71.724 1.8776 71.4766 1.31771 71.4766 0.625H73.0938C73.0938 0.947917 73.1901 1.20052 73.3828 1.38281C73.5807 1.5599 73.8516 1.64844 74.1953 1.64844C74.5339 1.64844 74.7995 1.5599 74.9922 1.38281C75.1849 1.20052 75.2812 0.947917 75.2812 0.625H76.9062ZM6.34375 32.6719H3.21094L2.60156 35H0.171875L3.72656 23.625H5.82812L9.40625 35H6.95312L6.34375 32.6719ZM3.71094 30.7578H5.83594L4.77344 26.7031L3.71094 30.7578ZM13.7891 30.3594H12.7891V35H10.4922V23.625H12.7891V28.1719H13.5625L15.5391 23.625H18.3359L15.5547 28.9219L18.6484 35H15.9141L13.7891 30.3594ZM26.9688 31.2109C26.9115 32.5078 26.5469 33.4896 25.875 34.1562C25.2031 34.8229 24.2552 35.1562 23.0312 35.1562C21.7448 35.1562 20.7578 34.7344 20.0703 33.8906C19.388 33.0417 19.0469 31.8333 19.0469 30.2656V28.3516C19.0469 26.7891 19.401 25.5859 20.1094 24.7422C20.8177 23.8932 21.8021 23.4688 23.0625 23.4688C24.3021 23.4688 25.2422 23.8151 25.8828 24.5078C26.5286 25.2005 26.8958 26.1953 26.9844 27.4922H24.6797C24.6589 26.6901 24.5339 26.138 24.3047 25.8359C24.0807 25.5286 23.6667 25.375 23.0625 25.375C22.4479 25.375 22.013 25.5911 21.7578 26.0234C21.5026 26.4505 21.3672 27.1562 21.3516 28.1406V30.2891C21.3516 31.4193 21.4766 32.1953 21.7266 32.6172C21.9818 33.0391 22.4167 33.25 23.0312 33.25C23.6354 33.25 24.0521 33.1042 24.2812 32.8125C24.5104 32.5156 24.6406 31.9818 24.6719 31.2109H26.9688ZM34.2578 30.0781H30.6797V33.0938H34.9141V35H28.3828V23.625H34.8984V25.5391H30.6797V28.2266H34.2578V30.0781ZM44.2188 23.625V35H41.9141V25.5391H39.8047L39.6484 29.5703C39.5859 30.8984 39.4349 31.9531 39.1953 32.7344C38.9609 33.5104 38.6146 34.0807 38.1562 34.4453C37.7031 34.8099 37.0911 34.9948 36.3203 35H35.7578V33.0938L36.0234 33.0703C36.5026 33.013 36.8464 32.7005 37.0547 32.1328C37.2682 31.5599 37.401 30.5495 37.4531 29.1016L37.6016 23.625H44.2188ZM51.9453 30.0781H48.3672V33.0938H52.6016V35H46.0703V23.625H52.5859V25.5391H48.3672V28.2266H51.9453V30.0781ZM56.2266 31V35H53.9297V23.625H57.8047C58.9297 23.625 59.8255 23.974 60.4922 24.6719C61.1641 25.3698 61.5 26.276 61.5 27.3906C61.5 28.5052 61.1693 29.3854 60.5078 30.0312C59.8464 30.6771 58.9297 31 57.7578 31H56.2266ZM56.2266 29.0859H57.8047C58.2422 29.0859 58.5807 28.9427 58.8203 28.6562C59.0599 28.3698 59.1797 27.9531 59.1797 27.4062C59.1797 26.8385 59.0573 26.388 58.8125 26.0547C58.5677 25.7161 58.2396 25.5443 57.8281 25.5391H56.2266V29.0859ZM67.0781 32.6719H63.9453L63.3359 35H60.9062L64.4609 23.625H66.5625L70.1406 35H67.6875L67.0781 32.6719ZM64.4453 30.7578H66.5703L65.5078 26.7031L64.4453 30.7578ZM77.6406 25.5391H74.8281V35H72.5234V25.5391H69.7578V23.625H77.6406V25.5391ZM86.75 30.3359C86.75 31.862 86.388 33.0469 85.6641 33.8906C84.9453 34.7344 83.9453 35.1562 82.6641 35.1562C81.388 35.1562 80.3854 34.7396 79.6562 33.9062C78.9271 33.0677 78.5573 31.8958 78.5469 30.3906V28.4453C78.5469 26.8828 78.9089 25.6641 79.6328 24.7891C80.3568 23.9089 81.362 23.4688 82.6484 23.4688C83.9141 23.4688 84.9115 23.901 85.6406 24.7656C86.3698 25.625 86.7396 26.8333 86.75 28.3906V30.3359ZM84.4453 28.4297C84.4453 27.4036 84.2995 26.6406 84.0078 26.1406C83.7161 25.6406 83.263 25.3906 82.6484 25.3906C82.0391 25.3906 81.5885 25.6328 81.2969 26.1172C81.0052 26.5964 80.8542 27.3281 80.8438 28.3125V30.3359C80.8438 31.3307 80.9922 32.0651 81.2891 32.5391C81.5859 33.0078 82.0443 33.2422 82.6641 33.2422C83.263 33.2422 83.7083 33.013 84 32.5547C84.2917 32.0911 84.4401 31.375 84.4453 30.4062V28.4297ZM90.6953 31V35H88.3984V23.625H92.2734C93.3984 23.625 94.2943 23.974 94.9609 24.6719C95.6328 25.3698 95.9688 26.276 95.9688 27.3906C95.9688 28.5052 95.638 29.3854 94.9766 30.0312C94.3151 30.6771 93.3984 31 92.2266 31H90.6953ZM90.6953 29.0859H92.2734C92.7109 29.0859 93.0495 28.9427 93.2891 28.6562C93.5286 28.3698 93.6484 27.9531 93.6484 27.4062C93.6484 26.8385 93.526 26.388 93.2812 26.0547C93.0365 25.7161 92.7083 25.5443 92.2969 25.5391H90.6953V29.0859Z" fill="white"/>
</svg>
