<svg width="35" height="53" viewBox="0 0 35 53" fill="none" xmlns="http://www.w3.org/2000/svg">
<path d="M17.4993 12.8203C15.2103 12.8203 13.3472 14.6829 13.3472 16.9719C13.3472 19.2609 15.2097 21.123 17.4993 21.123C19.7878 21.123 21.6498 19.2615 21.6498 16.9719C21.6498 14.6834 19.7878 12.8203 17.4993 12.8203Z" fill="#FF9900"/>
<path d="M17.4997 0C7.83469 0 0 7.83523 0 17.5003C0 27.1653 17.4997 52.7913 17.4997 52.7913C17.4997 52.7913 35 27.1653 35 17.5003C35 7.83523 27.1648 0 17.4997 0ZM17.5008 26.4604C12.2686 26.4604 8.01215 22.2028 8.01215 16.9717C8.01215 11.7395 12.2686 7.48303 17.5008 7.48303C22.7325 7.48303 26.9889 11.7395 26.9889 16.9717C26.9889 22.2028 22.732 26.4604 17.5008 26.4604Z" fill="#FF9900"/>
</svg>
