<svg width="753" height="526" viewBox="0 0 753 526" fill="none" xmlns="http://www.w3.org/2000/svg">
<path d="M586.1 252.307C641.065 293.792 680.601 334.485 699.086 368.493C708.328 385.497 712.024 400.309 710.379 412.504C708.74 424.654 701.785 434.317 689.462 441.047C677.106 447.795 659.677 451.412 637.927 451.82C616.189 452.227 590.192 449.427 560.747 443.392C501.857 431.322 432.289 406.952 362.087 373.79C291.887 340.628 224.709 300.402 170.249 258.921C115.77 217.426 76.903 176.873 59.1677 143.132C50.3008 126.263 46.9897 111.617 49.0091 99.6071C51.0212 87.6405 58.3459 78.1704 71.0369 71.6481C83.7572 65.1107 101.525 61.7169 123.573 61.5349C145.611 61.3529 171.867 64.3797 201.522 70.6332" stroke="#00ABFF" stroke-width="1.5"/>
</svg>
