<svg width="483" height="374" viewBox="0 0 483 374" fill="none" xmlns="http://www.w3.org/2000/svg">
<path d="M37.9964 270.413C29.7849 281.48 24.0154 291.292 20.7485 299.628C17.4748 307.982 16.7545 314.751 18.4795 319.801C20.1848 324.794 24.3101 328.183 30.8973 329.848C37.5108 331.52 46.5368 331.43 57.841 329.468C80.4396 325.546 111.059 314.337 146.532 296.968C181.995 279.604 220.973 256.738 259.416 230.744C297.859 204.749 334.355 176.581 365.112 149.167C395.876 121.748 419.751 96.1061 434.282 74.9076C441.549 64.3061 446.322 55.0444 448.581 47.322C450.843 39.5896 450.554 33.5176 447.881 29.1701C445.215 24.834 440.104 22.0955 432.517 21.1313C424.932 20.1673 414.988 20.996 402.86 23.6859" stroke="white" stroke-width="1.5"/>
</svg>
