<svg width="421" height="287" viewBox="0 0 421 287" fill="none" xmlns="http://www.w3.org/2000/svg">
<path d="M385.487 178.565C392.887 187.996 397.999 196.718 400.777 204.507C403.555 212.296 403.98 219.1 402.085 224.745C398.315 235.978 385.281 242.67 363.789 243.655C342.36 244.638 313.697 239.877 280.985 229.863C248.285 219.853 212.874 205.001 178.712 186.965C144.551 168.93 113.001 148.43 87.5862 127.76C62.1592 107.08 43.9265 87.087 34.858 70.0268C30.325 61.4989 28.1997 53.9251 28.3923 47.4748C28.5842 41.0522 31.073 35.7057 35.862 31.5706C40.6735 27.416 47.7552 24.5306 56.9187 23.0188C66.0759 21.508 77.2592 21.3778 90.2154 22.6884" stroke="#00ABFF" stroke-width="1.5"/>
</svg>
