<svg width="422" height="287" viewBox="0 0 422 287" fill="none" xmlns="http://www.w3.org/2000/svg">
<path d="M386.483 178.565C393.882 187.996 398.994 196.718 401.772 204.507C404.55 212.296 404.975 219.1 403.081 224.745C399.31 235.978 386.276 242.67 364.784 243.655C343.356 244.638 314.692 239.877 281.981 229.863C249.28 219.853 213.869 205.001 179.708 186.965C145.546 168.93 113.996 148.43 88.5813 127.76C63.1543 107.08 44.9216 87.087 35.8532 70.0268C31.3201 61.4989 29.1948 53.9251 29.3875 47.4748C29.5793 41.0522 32.0681 35.7057 36.8571 31.5706C41.6686 27.416 48.7504 24.5306 57.9138 23.0188C67.071 21.508 78.2543 21.3778 91.2105 22.6884" stroke="#00ABFF" stroke-width="1.5"/>
</svg>
