<svg width="754" height="525" viewBox="0 0 754 525" fill="none" xmlns="http://www.w3.org/2000/svg">
<path d="M138.836 273.907C88.4144 315.928 55.8306 355.515 45.7569 386.758C40.7283 402.353 41.4714 415.358 47.5756 425.479C53.6864 435.61 65.2649 443.01 82.2445 447.181C116.231 455.53 169.622 450.39 234.536 432.404C299.419 414.426 372.236 384.607 442.14 347.381C512.046 310.154 575.276 267.525 622.422 225.849C645.995 205.01 664.903 184.978 678.628 166.471C692.359 147.955 700.869 131.008 703.704 116.338C706.534 101.697 703.633 89.7501 695.429 80.7371C687.195 71.6928 673.525 65.4958 654.606 62.6025C616.762 56.8152 560.339 64.6177 493.698 84.9368" stroke="#00ABFF" stroke-width="1.5"/>
</svg>
