<svg width="758" height="535" viewBox="0 0 758 535" fill="none" xmlns="http://www.w3.org/2000/svg">
<path d="M517.986 214.583C590.406 259.971 648.345 308.285 681.237 350.663C697.687 371.856 707.273 390.795 709.968 406.719C712.655 422.598 708.494 435.458 697.435 444.676C686.319 453.941 668.517 459.297 645.02 460.564C621.543 461.83 592.481 459.008 558.951 452.019C491.892 438.042 411.553 408.355 332.646 368.38C253.74 328.405 181.581 280.835 129.373 234.389C103.269 211.166 83.0439 189.016 69.3381 168.909C55.622 148.786 48.4864 130.783 48.4371 115.837C48.388 100.963 55.3574 89.5344 68.7995 81.8591C82.2914 74.1553 102.322 70.23 128.321 70.5434C180.305 71.1702 252.325 88.695 331.207 119.959" stroke="white" stroke-width="1.5"/>
</svg>
