<svg width="498" height="396" viewBox="0 0 498 396" fill="none" xmlns="http://www.w3.org/2000/svg">
<path d="M215.457 148.708C166.725 182.303 122.124 218.749 89.019 252.019C72.4662 268.655 59.2943 283.987 49.8985 297.437C40.4909 310.903 34.9159 322.416 33.471 331.422C32.7503 335.913 33.0751 339.67 34.3472 342.711C35.6144 345.741 37.8462 348.121 41.0546 349.832C47.5188 353.281 57.9375 354.005 72.1732 351.668C100.6 347.001 141.951 330.509 189.414 304.86C236.86 279.22 287.515 245.996 333.007 210.677C378.505 175.354 416.088 140.071 439.568 110.662C451.311 95.9527 459.142 83.1928 462.946 72.8238C466.76 62.4265 466.457 54.6448 462.309 49.642C458.137 44.6096 449.972 42.2457 437.987 42.8303C426.044 43.4129 410.517 46.9158 391.908 53.3463" stroke="#00ABFF" stroke-width="1.5"/>
</svg>
