<svg width="483" height="374" viewBox="0 0 483 374" fill="none" xmlns="http://www.w3.org/2000/svg">
<path d="M444.675 270.63C452.887 281.698 458.656 291.509 461.923 299.846C465.197 308.2 465.917 314.968 464.192 320.018C462.487 325.011 458.361 328.4 451.774 330.065C445.161 331.737 436.135 331.647 424.83 329.685C402.232 325.763 371.612 314.554 336.139 297.185C300.677 279.822 261.698 256.955 223.255 230.961C184.812 204.966 148.316 176.798 117.559 149.384C86.7955 121.965 62.9203 96.3233 48.3892 75.1248C41.1221 64.5233 36.3491 55.2616 34.09 47.5392C31.8279 39.8068 32.1175 33.7348 34.7904 29.3873C37.4563 25.0512 42.5676 22.3126 50.1542 21.3485C57.7389 20.3845 67.6835 21.2132 79.8112 23.9031" stroke="white" stroke-width="1.5"/>
</svg>
